<svg width="409" height="510" viewBox="0 0 409 510" fill="none" xmlns="http://www.w3.org/2000/svg">
<path fill-rule="evenodd" clip-rule="evenodd" d="M0 405.5H280V509.5H102L0 405.5ZM254 428H53.5L115 488.5H254V428Z" fill="url(#paint0_linear_1_6)"/>
<path fill-rule="evenodd" clip-rule="evenodd" d="M307.5 331.5H408.5V405.5L307.5 509.5V331.5ZM383 351H328L331.5 451L383 400V351Z" fill="url(#paint1_linear_1_6)"/>
<path fill-rule="evenodd" clip-rule="evenodd" d="M128 202.5H307.5L408.5 304.5H128V202.5ZM297 221.5H149V285.5H361.5L297 221.5Z" fill="url(#paint2_linear_1_6)"/>
<path fill-rule="evenodd" clip-rule="evenodd" d="M0 126H102V304.5L0 202.5V126ZM79 146.5H20.5V191L79 247V146.5Z" fill="url(#paint3_linear_1_6)"/>
<path fill-rule="evenodd" clip-rule="evenodd" d="M0 101L102 0H307.5L408.5 101H0ZM297 21H111L53.5 79H355.5L297 21Z" fill="url(#paint4_linear_1_6)"/>
<defs>
<linearGradient id="paint0_linear_1_6" x1="204.25" y1="0" x2="204.25" y2="509.5" gradientUnits="userSpaceOnUse">
<stop stop-color="#1595B1"/>
<stop offset="0.635" stop-color="#266291"/>
<stop offset="1" stop-color="#30457F"/>
</linearGradient>
<linearGradient id="paint1_linear_1_6" x1="204.25" y1="0" x2="204.25" y2="509.5" gradientUnits="userSpaceOnUse">
<stop stop-color="#1595B1"/>
<stop offset="0.635" stop-color="#266291"/>
<stop offset="1" stop-color="#30457F"/>
</linearGradient>
<linearGradient id="paint2_linear_1_6" x1="204.25" y1="0" x2="204.25" y2="509.5" gradientUnits="userSpaceOnUse">
<stop stop-color="#1595B1"/>
<stop offset="0.635" stop-color="#266291"/>
<stop offset="1" stop-color="#30457F"/>
</linearGradient>
<linearGradient id="paint3_linear_1_6" x1="204.25" y1="0" x2="204.25" y2="509.5" gradientUnits="userSpaceOnUse">
<stop stop-color="#1595B1"/>
<stop offset="0.635" stop-color="#266291"/>
<stop offset="1" stop-color="#30457F"/>
</linearGradient>
<linearGradient id="paint4_linear_1_6" x1="204.25" y1="0" x2="204.25" y2="509.5" gradientUnits="userSpaceOnUse">
<stop stop-color="#1595B1"/>
<stop offset="0.635" stop-color="#266291"/>
<stop offset="1" stop-color="#30457F"/>
</linearGradient>
</defs>
</svg>
